<?xml version="1.0" standalone="no"?>
<!DOCTYPE svg PUBLIC "-//W3C//DTD SVG 20010904//EN"
 "http://www.w3.org/TR/2001/REC-SVG-20010904/DTD/svg10.dtd">
<svg version="1.0" xmlns="http://www.w3.org/2000/svg"
 width="736.000000pt" height="1308.000000pt" viewBox="0 0 736.000000 1308.000000"
 preserveAspectRatio="xMidYMid meet">

<g transform="translate(0.000000,1308.000000) scale(0.100000,-0.100000)"
fill="#000000" stroke="none">
<path d="M0 11046 l0 -2033 38 1 c49 1 89 -26 108 -71 27 -65 -14 -140 -86
-157 -23 -6 -23 -5 -6 6 69 47 78 59 71 102 -4 23 -12 46 -17 53 -13 16 -63
26 -88 18 l-20 -6 0 -4480 0 -4479 3680 0 3680 0 0 6540 0 6540 -3680 0 -3680
0 0 -2034z m4600 475 c0 -5 -10 -9 -22 -9 -33 0 -114 -20 -141 -33 -21 -11
-21 -10 -5 6 25 27 168 58 168 36z m-300 -51 c-6 -11 -13 -20 -16 -20 -2 0 0
9 6 20 6 11 13 20 16 20 2 0 0 -9 -6 -20z m-126 -115 c-16 -35 -32 -65 -36
-65 -9 0 0 25 32 93 34 72 37 47 4 -28z m766 -9 c-14 -7 -36 -16 -50 -20 -19
-5 -16 -2 10 13 19 11 42 20 50 20 8 0 4 -6 -10 -13z m-1064 -118 c8 -16 13
-32 11 -34 -4 -5 -47 61 -47 72 0 13 22 -10 36 -38z m1234 -3 c0 -10 -10 -15
-27 -15 -27 1 -27 1 -9 15 25 19 36 19 36 0z m24 -46 c-10 -18 -40 -28 -54
-19 -13 8 -12 11 4 23 20 15 60 11 50 -4z m-768 -238 c14 -14 154 -71 174 -71
10 0 23 7 30 15 16 19 40 19 40 1 0 -27 21 -28 55 -2 48 37 39 39 197 -48 24
-13 70 -38 103 -56 33 -18 68 -40 78 -48 9 -8 26 -20 36 -26 139 -81 195 -161
139 -200 -21 -15 -21 -16 -4 -70 22 -69 34 -142 45 -273 12 -129 15 -139 53
-152 50 -18 28 -21 -37 -5 -33 7 -94 14 -135 15 -80 1 -247 -24 -313 -47 -49
-17 -65 -18 -49 -2 8 8 9 15 1 25 -7 7 -8 13 -4 13 4 0 -7 16 -24 35 -17 20
-31 41 -32 48 0 7 -3 21 -5 32 -3 11 -5 27 -4 35 3 69 5 73 42 92 20 11 40 28
43 38 4 12 12 16 25 13 21 -6 28 11 9 22 -5 4 -8 12 -6 18 2 7 -2 25 -11 42
-10 20 -11 30 -3 33 18 6 12 19 -9 18 -10 -1 -19 1 -18 4 4 14 -24 50 -34 44
-7 -5 -9 1 -6 18 2 13 -1 30 -9 36 -15 15 -15 15 -17 -20 -2 -33 -16 -50 -16
-19 0 12 -7 29 -16 38 -8 9 -13 21 -10 29 3 7 -2 18 -10 24 -8 7 -14 23 -14
36 0 13 -4 24 -10 24 -5 0 -10 -4 -10 -10 0 -5 -9 -10 -20 -10 -23 0 -25 -9
-6 -35 13 -18 14 -18 21 5 l8 24 14 -28 c12 -24 13 -30 2 -37 -8 -4 -18 -4
-23 1 -6 6 -18 10 -29 10 -14 0 -17 5 -12 19 5 16 1 20 -17 19 -32 -1 -68 -19
-68 -35 0 -12 -13 -18 -34 -14 -4 1 -17 -1 -28 -4 -15 -6 -17 -9 -7 -21 9 -11
9 -18 1 -26 -9 -9 -12 -9 -12 -1 0 6 -7 19 -16 28 -13 13 -14 18 -3 31 7 8 19
12 26 9 9 -3 13 0 10 7 -2 7 -14 12 -26 11 -12 -2 -21 3 -21 10 0 7 -7 22 -15
33 -15 18 -15 18 -9 -8 5 -22 2 -28 -10 -28 -10 0 -13 5 -9 17 5 12 2 15 -8
11 -9 -4 -20 2 -27 13 -14 22 -37 26 -28 4 3 -9 0 -15 -9 -15 -8 0 -15 9 -15
20 0 11 -6 20 -14 20 -7 0 -16 10 -19 22 -7 23 3 42 10 21 2 -7 11 -9 19 -6 9
3 14 -2 14 -17 0 -17 4 -20 19 -15 13 4 23 0 29 -11 5 -9 14 -14 21 -10 17 11
13 21 -14 36 -18 9 -23 19 -19 32 5 18 -6 25 -20 11 -3 -4 -16 -7 -27 -8 -16
-1 -19 3 -17 24 2 18 -2 26 -12 26 -8 0 -15 -9 -16 -20 -2 -36 -4 -37 -23 -14
-15 18 -17 30 -9 63 14 67 29 86 93 116 66 32 76 34 91 21z m194 -51 c0 -5 -2
-10 -4 -10 -3 0 -8 5 -11 10 -3 6 -1 10 4 10 6 0 11 -4 11 -10z m-1237 -192
c6 -22 5 -22 -8 -4 -17 22 -20 40 -6 32 5 -3 11 -16 14 -28z m897 -33 c0 -8
-4 -15 -10 -15 -5 0 -10 7 -10 15 0 8 5 15 10 15 6 0 10 -7 10 -15z m-778 -60
c17 -7 58 -80 58 -103 0 -50 -72 -119 -115 -110 -17 3 -14 7 17 29 30 20 35
28 25 38 -9 10 -6 17 16 36 15 13 27 32 27 43 0 24 -51 72 -57 55 -3 -7 -11
-13 -19 -13 -9 0 -13 4 -10 9 3 5 -1 12 -10 15 -22 8 -26 8 -20 -3 4 -5 -3 -7
-14 -4 -26 7 -25 12 2 22 21 8 62 2 100 -14z m988 -195 c0 -5 -7 -10 -15 -10
-8 0 -15 5 -15 10 0 6 7 10 15 10 8 0 15 -4 15 -10z m4 -96 c3 -9 6 -19 6 -24
0 -12 -39 -20 -46 -9 -3 5 0 9 5 9 6 0 11 9 11 20 0 24 15 27 24 4z m-767 -56
c-3 -7 -5 -2 -5 12 0 14 2 19 5 13 2 -7 2 -19 0 -25z m780 -27 c3 -11 18 -25
33 -31 42 -17 67 -47 52 -62 -7 -7 -12 -20 -12 -29 0 -20 -57 -65 -94 -75 -14
-3 -29 -10 -32 -16 -3 -5 -11 -4 -19 2 -8 7 -23 9 -35 5 -14 -4 -20 -2 -20 8
0 8 -7 20 -15 27 -11 9 -15 9 -15 1 0 -7 -4 -9 -10 -6 -5 3 -10 15 -10 26 0
10 -5 19 -11 19 -15 0 -33 22 -37 44 -3 14 1 17 12 13 12 -5 15 -1 13 16 -2
12 -2 16 0 9 3 -8 11 -11 18 -8 7 2 22 -4 32 -14 19 -17 20 -17 32 2 13 21 6
42 -11 32 -7 -5 -8 -2 -3 5 5 9 14 6 33 -11 l25 -23 -6 23 c-5 21 -3 23 16 18
29 -7 52 8 44 28 -4 9 -2 16 4 16 6 0 13 -9 16 -19z m-242 -40 c10 -17 -15
-23 -31 -7 -14 15 -14 16 5 16 11 0 22 -4 26 -9z m-2041 -58 c14 -15 39 -54
55 -88 27 -53 31 -75 37 -181 l7 -119 -27 -3 c-18 -1 -26 2 -23 11 2 6 0 26
-5 42 -5 17 -11 68 -13 114 -2 46 -6 86 -9 88 -6 6 -70 -29 -75 -41 -2 -4 -7
-2 -11 5 -5 7 -17 13 -27 14 -10 1 -24 4 -32 6 -9 2 -17 -6 -21 -21 l-6 -25
-7 27 c-8 29 1 86 14 94 5 3 9 14 9 25 0 29 53 79 84 79 15 0 36 -11 50 -27z
m1512 -48 c-7 -38 -26 -48 -26 -14 0 24 19 63 27 55 3 -3 2 -21 -1 -41z m4
-66 c0 -4 -7 -6 -15 -3 -8 4 -15 10 -15 15 0 4 7 6 15 3 8 -4 15 -10 15 -15z
m-259 -16 c13 -16 12 -17 -3 -4 -10 7 -18 15 -18 17 0 8 8 3 21 -13z m-988
-63 c44 0 59 -68 92 -410 8 -85 19 -204 26 -265 13 -129 16 -389 5 -493 -8
-81 -2 -112 20 -112 30 0 11 -16 -52 -45 -41 -19 -79 -45 -101 -70 -19 -22
-31 -33 -28 -24 5 13 -3 17 -37 22 -38 5 -77 -7 -63 -21 2 -3 11 1 20 8 8 7
15 9 15 6 0 -11 -27 -36 -39 -36 -6 0 -11 -7 -11 -15 0 -8 5 -14 11 -12 6 1
14 -4 17 -12 3 -10 0 -12 -12 -8 -9 4 -16 2 -16 -3 0 -6 -4 -10 -10 -10 -5 0
-10 7 -10 15 0 8 -4 15 -10 15 -5 0 -10 -5 -10 -11 0 -8 -5 -7 -15 1 -13 10
-19 10 -35 -5 -18 -16 -20 -16 -20 -2 0 9 4 18 10 22 5 3 6 13 3 22 -5 14 -4
14 19 -1 14 -9 32 -14 41 -11 23 9 29 46 9 61 -19 14 -34 0 -25 -23 5 -13 -13
-13 -62 2 -6 1 -11 -18 -12 -43 -1 -24 -7 -50 -13 -56 -9 -8 -11 -7 -10 4 5
32 -1 46 -22 55 -13 6 -24 18 -26 29 -3 12 0 16 8 11 6 -4 20 1 30 10 11 10
24 14 32 10 7 -4 6 0 -4 10 -15 17 -18 16 -53 -11 -36 -27 -38 -27 -51 -9 -10
13 -11 22 -3 32 12 14 33 7 24 -8 -7 -10 18 -13 28 -3 12 12 -14 44 -35 44
-12 0 -32 -10 -45 -22 -13 -12 -23 -17 -23 -11 0 6 7 16 15 23 10 8 12 17 5
30 -7 13 -4 20 15 30 14 7 25 19 25 27 0 19 17 16 24 -4 5 -13 9 -14 19 -4 9
9 9 14 -2 20 -17 11 2 23 23 15 20 -8 20 -18 1 -34 -17 -14 -4 -37 14 -26 16
10 13 52 -4 70 -8 8 -15 19 -15 25 0 6 -6 11 -14 11 -9 0 -12 7 -9 19 3 10 -1
22 -7 26 -8 5 2 14 26 26 36 16 37 18 17 24 -13 4 -23 10 -23 13 0 18 53 178
71 213 10 20 14 182 5 197 -3 6 7 13 26 17 18 4 48 16 66 27 31 19 32 21 15
34 -17 13 -17 13 0 14 9 0 17 4 17 9 0 5 3 16 6 24 4 11 -5 16 -33 19 -21 3
-41 0 -45 -6 -5 -7 -21 -7 -55 2 -26 7 -49 15 -51 17 -2 2 4 16 13 32 l16 28
-4 -27 c-3 -20 0 -28 10 -28 8 0 11 5 8 10 -9 15 79 12 93 -2 10 -10 15 -10
21 1 5 8 16 11 24 8 10 -4 17 0 19 11 6 25 38 -40 38 -75 0 -43 -36 -93 -80
-110 -33 -13 -39 -20 -43 -52 -2 -20 -7 -47 -11 -61 -3 -14 -13 -56 -22 -95
-9 -38 -20 -74 -25 -80 -5 -5 -9 -34 -9 -64 0 -59 26 -101 62 -101 10 0 18 -4
18 -9 0 -14 52 -44 80 -47 14 -1 50 -9 80 -18 89 -27 124 -35 129 -31 2 3 -1
28 -7 57 -6 31 -7 54 -1 56 5 2 5 12 -1 22 -9 18 -15 68 -25 235 -2 33 -4 62
-4 65 -1 3 -18 6 -38 6 -21 1 -39 7 -41 13 -2 6 -10 11 -18 11 -8 0 -14 4 -14
9 0 10 72 61 87 61 12 0 11 79 0 110 -3 8 -8 67 -12 130 -4 63 -9 131 -12 150
-7 56 -7 64 1 87 6 18 4 22 -8 17 -9 -3 -20 3 -28 15 -7 12 -18 21 -24 21 -6
0 -19 9 -28 19 -10 11 -28 22 -42 25 -13 4 -24 12 -25 19 0 6 -1 35 -2 62 l-2
50 40 6 c25 3 48 0 62 -8 12 -7 29 -13 36 -13z m-283 10 c0 -5 -4 -10 -10 -10
-5 0 -10 5 -10 10 0 6 5 10 10 10 6 0 10 -4 10 -10z m-204 -36 c17 -25 27 -59
26 -94 -2 -243 -1 -343 3 -350 3 -4 2 -42 -2 -84 -4 -54 -10 -76 -19 -76 -19
0 -18 -29 1 -36 8 -4 15 -15 15 -25 0 -12 -5 -16 -14 -13 -11 4 -16 -5 -18
-37 -2 -23 -8 -44 -14 -46 -8 -3 -9 9 -4 39 5 23 4 67 0 96 -5 29 -6 60 -3 70
4 9 6 32 5 52 -7 93 -6 308 1 303 10 -6 9 2 -5 32 -10 22 -35 32 -70 26 -5 0
-8 4 -8 10 0 6 -10 9 -22 7 -18 -2 -26 -16 -41 -66 -11 -35 -21 -62 -23 -59
-2 2 3 28 12 58 8 30 19 73 23 96 4 23 20 60 36 83 26 37 32 40 68 38 28 -1
43 -8 53 -24z m58 10 c9 -24 7 -28 -9 -14 -17 14 -20 30 -6 30 5 0 12 -7 15
-16z m164 -42 c2 -7 -2 -10 -12 -6 -9 3 -16 11 -16 16 0 13 23 5 28 -10z
m2437 -22 c21 17 45 -15 46 -63 1 -23 3 -82 5 -132 1 -49 7 -125 13 -168 8
-69 13 -82 40 -106 34 -30 40 -51 16 -51 -14 0 -14 -3 0 -30 19 -37 19 -50 0
-50 -8 0 -15 -4 -15 -8 0 -4 -14 -13 -30 -19 -21 -8 -28 -16 -24 -27 8 -20 -9
-21 -25 -2 -7 8 -21 12 -31 9 -15 -4 -20 0 -20 16 0 12 -7 33 -17 47 -15 24
-15 28 5 68 24 47 27 66 12 66 -5 0 -10 12 -10 26 0 14 4 23 10 19 6 -4 10 5
10 19 0 14 -5 26 -11 26 -7 0 -9 10 -5 24 3 14 1 28 -4 31 -8 5 -8 11 0 20 8
10 7 22 -6 46 -14 28 -14 34 -2 43 8 6 13 17 10 25 -3 9 -6 10 -11 2 -5 -8
-14 -4 -27 11 -13 16 -14 19 -2 10 9 -7 19 -9 21 -5 9 14 -9 36 -22 29 -13 -9
-15 16 -2 30 5 5 11 20 13 34 2 19 -1 24 -14 22 -30 -5 -20 27 10 34 15 3 32
7 37 8 6 2 12 -1 13 -6 2 -5 10 -4 17 2z m915 -47 c0 -57 -5 -53 -13 10 -4 31
-3 46 3 42 6 -3 10 -27 10 -52z m-70 -99 c0 -8 5 -14 10 -14 6 0 10 -6 10 -14
0 -8 9 -21 20 -29 10 -7 24 -26 31 -43 12 -29 21 -74 15 -74 -2 0 -29 38 -60
84 -56 83 -70 121 -41 110 8 -4 15 -12 15 -20z m-3180 -102 l0 -107 -39 -1
c-44 -2 -43 -7 -16 86 8 30 12 67 9 82 -7 34 1 48 27 48 18 0 19 -8 19 -108z
m3089 16 c-13 -29 -31 -65 -41 -80 -10 -14 -18 -29 -18 -33 0 -18 -59 -101
-108 -152 l-52 -54 -56 7 -55 6 6 -28 c6 -28 6 -28 -9 -10 -20 25 -20 35 -1
42 8 4 12 10 9 16 -3 5 -13 7 -21 4 -12 -5 -14 0 -11 23 3 23 0 32 -19 40 -18
8 -23 8 -23 -4 0 -9 -10 -15 -25 -15 -16 0 -25 6 -25 16 0 11 6 14 20 9 34
-11 22 15 -12 28 -18 6 -36 11 -39 10 -4 -1 -4 8 -1 20 5 19 3 20 -10 9 -14
-11 -16 -10 -11 10 4 22 4 22 -11 4 -19 -23 -20 -32 -6 -41 6 -3 10 -14 9 -23
0 -11 -3 -12 -6 -4 -6 15 -33 16 -33 1 0 -5 -5 -7 -11 -3 -8 5 -7 10 4 16 13
7 14 14 7 34 -14 36 -4 47 39 41 54 -6 240 19 297 41 57 21 157 87 193 126 38
40 48 11 20 -56z m-655 -34 c3 -8 2 -12 -4 -9 -6 3 -10 10 -10 16 0 14 7 11
14 -7z m-1224 -131 c22 -38 18 -44 -23 -31 -21 7 -42 27 -63 58 -17 27 -26 46
-19 44 22 -9 27 14 5 26 -11 6 -20 16 -20 22 0 17 96 -79 120 -119z m1227 65
c-3 -8 -6 -5 -6 6 -1 11 2 17 5 13 3 -3 4 -12 1 -19z m-2979 -15 c-5 -23 -23
-20 -26 4 -3 18 0 21 13 17 9 -4 15 -13 13 -21z m4077 17 c3 -5 18 -10 33 -10
20 0 23 -3 14 -12 -8 -8 -8 -17 0 -32 11 -21 11 -21 -11 -1 -18 16 -26 17 -41
7 -11 -6 -26 -9 -33 -6 -8 3 -22 -2 -31 -11 -10 -11 -16 -12 -16 -4 0 8 -6 7
-18 -4 -10 -10 -22 -17 -27 -17 -5 0 -17 -7 -27 -17 -15 -14 -18 -14 -18 -1 0
36 25 81 54 99 33 20 111 26 121 9z m-1565 -24 c0 -15 -100 -76 -125 -76 -8 0
-15 -4 -15 -10 0 -5 -8 -10 -18 -10 -10 0 -22 -4 -27 -8 -17 -14 -65 -32 -65
-24 0 7 14 16 115 75 28 17 52 33 55 36 23 27 80 40 80 17z m520 7 c0 -5 -5
-15 -10 -23 -8 -12 -10 -11 -10 8 0 12 5 22 10 22 6 0 10 -3 10 -7z m767 -15
c-2 -13 -12 -40 -21 -62 -17 -37 -17 -38 1 -32 14 6 13 3 -5 -14 -16 -15 -20
-28 -16 -45 9 -34 -24 -129 -52 -154 -27 -24 -39 -27 -27 -8 4 6 6 19 5 28 -2
9 4 22 13 29 8 7 15 18 15 25 0 7 9 24 20 38 11 14 20 31 20 38 0 8 -12 -3
-27 -24 -26 -37 -39 -42 -79 -31 -16 4 -19 11 -16 37 6 40 18 49 59 42 29 -5
33 -3 39 22 4 15 18 42 31 59 12 17 23 41 23 52 0 12 5 22 11 22 7 0 9 -10 6
-22z m-3924 -36 c8 -9 22 -33 30 -53 12 -30 13 -41 1 -67 -7 -17 -9 -34 -4
-37 11 -7 9 -45 -2 -45 -4 0 -8 5 -8 12 0 9 -3 9 -12 0 -17 -17 -48 -15 -48 2
0 8 -9 18 -20 21 -11 3 -20 13 -20 22 0 8 -10 23 -22 32 -16 13 -19 23 -13 37
7 17 8 18 12 2 3 -10 9 -18 14 -18 6 0 6 7 -1 19 -15 28 -12 49 8 69 23 23 66
26 85 4z m3104 -4 c-3 -8 -6 -5 -6 6 -1 11 2 17 5 13 3 -3 4 -12 1 -19z
m-2992 3 c3 -5 1 -12 -5 -16 -5 -3 -10 1 -10 9 0 18 6 21 15 7z m3177 -53 c-9
-9 -12 -7 -12 12 0 19 3 21 12 12 9 -9 9 -15 0 -24z m-2767 -8 c3 -5 -1 -10
-9 -10 -8 0 -18 5 -21 10 -3 6 1 10 9 10 8 0 18 -4 21 -10z m155 -16 c0 -2 -7
-4 -15 -4 -8 0 -15 4 -15 10 0 5 7 7 15 4 8 -4 15 -8 15 -10z m2291 -7 c-10
-9 -11 -8 -5 6 3 10 9 15 12 12 3 -3 0 -11 -7 -18z m419 12 c0 -6 -8 -18 -17
-27 -16 -16 -16 -16 -10 1 4 10 7 23 7 28 0 5 5 9 10 9 6 0 10 -5 10 -11z
m-1482 -108 c18 -19 29 -38 24 -43 -9 -9 -112 113 -112 134 0 7 12 -3 27 -22
15 -19 42 -50 61 -69z m-2031 47 c-3 -8 -6 -5 -6 6 -1 11 2 17 5 13 3 -3 4
-12 1 -19z m2150 0 c-3 -8 -6 -5 -6 6 -1 11 2 17 5 13 3 -3 4 -12 1 -19z m828
2 c4 -6 -1 -7 -11 -3 -12 4 -15 3 -10 -6 5 -8 0 -20 -13 -32 -14 -13 -21 -15
-22 -7 0 7 -4 4 -9 -7 -7 -16 -9 -17 -9 -3 -2 37 18 68 43 68 14 0 28 -4 31
-10z m-104 -42 c-14 -42 -10 -98 7 -98 6 0 12 -2 12 -4 0 -2 3 -11 6 -20 11
-29 -34 -19 -49 12 -15 30 -13 46 10 110 18 49 30 50 14 0z m409 11 c0 -6 -4
-7 -10 -4 -5 3 -10 11 -10 16 0 6 5 7 10 4 6 -3 10 -11 10 -16z m-1120 -45 c0
-24 3 -44 8 -44 4 0 16 -39 26 -87 10 -49 20 -96 23 -105 2 -10 -1 -18 -8 -18
-8 0 -6 -6 5 -19 9 -10 14 -25 10 -35 -3 -9 -1 -16 5 -16 6 0 11 -6 11 -14 0
-8 9 -30 19 -48 30 -51 69 -170 68 -204 -2 -35 -22 -36 -31 -1 -4 17 -8 19
-17 10 -10 -10 -7 -17 12 -32 13 -10 21 -22 18 -25 -9 -10 -82 71 -76 86 4 9
8 6 12 -9 8 -26 20 -30 28 -9 6 16 -26 50 -36 39 -4 -3 -7 6 -7 20 0 15 5 27
11 27 8 0 7 5 -1 15 -7 9 -15 41 -17 72 -3 35 -10 61 -20 68 -10 8 -15 31 -16
73 -1 34 -4 62 -8 62 -3 0 -12 42 -18 93 -7 50 -14 107 -17 125 -4 23 -2 32 5
27 6 -3 11 -26 11 -51z m890 -21 c0 -7 -57 24 -67 37 -23 30 0 29 33 -2 19
-18 34 -34 34 -35z m588 50 c5 -18 -19 -16 -43 3 -19 15 -19 15 9 12 16 -2 31
-9 34 -15z m-3523 -35 l40 -3 -3 -90 c-2 -49 -7 -108 -12 -130 -5 -22 -11 -98
-15 -170 -5 -122 -15 -183 -36 -230 l-9 -20 5 20 c5 22 23 240 29 345 2 36 7
73 11 83 6 14 2 17 -21 17 -22 0 -25 3 -14 9 8 6 17 8 21 6 10 -7 20 54 13 82
-4 16 -2 28 6 33 9 6 10 12 1 26 -9 17 -10 17 -11 2 0 -11 -8 -18 -20 -18 -22
0 -26 -10 -10 -26 8 -8 6 -15 -5 -24 -13 -11 -15 -8 -15 17 0 16 5 34 12 41 9
9 8 12 -5 12 -9 0 -17 -4 -17 -10 0 -5 -6 -10 -13 -10 -9 0 -12 11 -9 36 4 32
6 34 21 20 9 -8 34 -16 56 -18z m2845 7 c0 -8 -7 -15 -16 -15 -14 0 -14 3 -4
15 7 8 14 15 16 15 2 0 4 -7 4 -15z m120 0 c19 -23 8 -26 -20 -5 -19 15 -21
20 -9 20 9 0 22 -7 29 -15z m265 -4 c3 -5 1 -12 -5 -16 -5 -3 -10 1 -10 9 0
18 6 21 15 7z m-425 -5 c0 -3 -4 -8 -10 -11 -5 -3 -10 -1 -10 4 0 6 5 11 10
11 6 0 10 -2 10 -4z m398 -46 c-2 -7 -10 1 -17 16 -12 27 -11 28 4 12 10 -9
16 -21 13 -28z m-90 18 c-6 -18 -28 -21 -28 -4 0 9 7 16 16 16 9 0 14 -5 12
-12z m135 -28 c4 -19 17 -35 37 -45 21 -11 30 -23 30 -40 0 -14 -5 -25 -12
-25 -9 0 -8 -3 1 -12 11 -10 14 -10 18 0 9 23 25 12 19 -13 -4 -15 0 -37 9
-55 15 -28 14 -30 -4 -30 -10 0 -43 11 -73 25 -29 14 -63 25 -75 25 -13 0 -23
3 -23 8 0 4 -18 16 -40 26 -47 22 -40 41 14 39 26 -1 41 7 66 32 20 20 28 35
21 39 -13 8 -15 56 -2 56 5 0 11 -13 14 -30z m-3323 -19 c0 -5 3 -18 6 -28 6
-16 5 -16 -9 2 -19 23 -21 35 -7 35 6 0 10 -4 10 -9z m2004 -22 c-3 -5 -10 -7
-15 -3 -5 3 -7 10 -3 15 3 5 10 7 15 3 5 -3 7 -10 3 -15z m-1934 -3 c0 -2 -7
-9 -15 -16 -13 -11 -14 -10 -9 4 5 14 24 23 24 12z m3695 -18 c-2 -13 -9 -81
-15 -152 -9 -118 -13 -134 -41 -180 -18 -28 -34 -53 -38 -56 -3 -3 -23 -30
-44 -60 -56 -82 -66 -94 -73 -88 -3 4 2 18 11 32 9 14 14 30 11 35 -4 5 2 24
13 42 11 18 18 36 15 41 -3 4 2 8 12 8 12 0 15 6 11 21 -6 23 24 111 67 195
14 29 26 59 26 69 0 9 7 23 15 31 8 9 15 31 15 50 0 19 5 34 10 34 6 0 8 -10
5 -22z m-3359 -35 c-2 -16 -10 -57 -16 -93 -15 -77 -34 -118 -24 -50 4 25 9
59 11 75 2 17 5 39 7 51 2 20 14 44 21 44 2 0 2 -12 1 -27z m-511 -43 c3 -5 1
-10 -4 -10 -6 0 -11 5 -11 10 0 6 2 10 4 10 3 0 8 -4 11 -10z m2175 -156 c0
-21 -4 -33 -10 -29 -5 3 -10 19 -10 36 0 16 5 29 10 29 6 0 10 -16 10 -36z
m-1707 -41 c-8 -52 -13 -54 -13 -5 0 23 4 42 9 42 6 0 7 -17 4 -37z m2845 31
c16 -5 21 -12 17 -24 -4 -13 1 -19 22 -23 15 -3 30 -1 34 4 3 5 14 2 25 -6 18
-14 17 -14 -13 -15 -18 0 -56 9 -84 20 -34 14 -72 20 -108 19 -31 0 -72 4 -91
10 l-35 11 45 -4 c25 -2 56 0 70 4 31 10 88 12 118 4z m413 -35 c-5 -13 -10
-19 -10 -12 -1 15 10 45 15 40 3 -2 0 -15 -5 -28z m-1539 -24 c-2 -14 -8 -25
-13 -25 -7 0 -7 24 0 48 1 1 5 2 10 2 4 0 6 -11 3 -25z m1521 -20 c-3 -9 -8
-14 -10 -11 -3 3 -2 9 2 15 9 16 15 13 8 -4z m-3203 -56 c0 -7 10 -9 25 -5 26
7 26 6 9 -19 -9 -14 -23 -25 -30 -25 -8 0 -17 -7 -20 -15 -9 -22 -126 -85
-158 -85 -22 0 -27 4 -24 21 2 12 12 27 23 33 11 6 38 23 60 37 22 15 50 29
63 33 12 4 22 14 22 22 0 8 7 14 15 14 8 0 15 -5 15 -11z m119 -19 c4 0 12 5
19 12 9 9 12 9 12 -3 0 -8 -10 -20 -21 -28 -18 -11 -23 -11 -30 1 -11 16 -11
32 -1 42 4 4 8 1 10 -8 2 -9 7 -16 11 -16z m2708 23 c-4 -3 -40 -7 -82 -9 -41
-1 -79 -5 -84 -8 -5 -3 -17 -3 -28 1 -14 6 -9 9 22 14 56 9 180 10 172 2z
m-220 -9 c-3 -3 -12 -4 -19 -1 -8 3 -5 6 6 6 11 1 17 -2 13 -5z m263 -4 c0 -5
-7 -7 -15 -4 -8 4 -15 8 -15 10 0 2 7 4 15 4 8 0 15 -4 15 -10z m2010 -61 c13
-7 12 -8 -2 -9 -31 0 -98 -32 -98 -46 0 -8 -7 -14 -15 -14 -29 0 -9 -75 33
-123 30 -33 3 -28 -36 8 -50 44 -60 81 -36 131 31 64 95 87 154 53z m-4780 1
c0 -5 -2 -10 -4 -10 -3 0 -8 5 -11 10 -3 6 -1 10 4 10 6 0 11 -4 11 -10z m-40
-5 c0 -2 -9 -9 -20 -15 -12 -6 -20 -7 -20 -1 0 5 8 12 18 14 9 3 18 5 20 6 1
0 2 -1 2 -4z m-60 -31 c0 -8 -4 -12 -10 -9 -5 3 -10 10 -10 16 0 5 5 9 10 9 6
0 10 -7 10 -16z m71 -20 c12 -14 11 -16 -5 -13 -11 2 -21 10 -24 17 -5 17 13
15 29 -4z m-323 -7 c6 -5 12 -18 12 -31 0 -12 3 -26 8 -30 4 -4 8 -20 9 -34 1
-15 4 -46 7 -69 4 -44 -6 -56 -22 -27 -7 13 -11 12 -26 -10 -17 -26 -59 -36
-71 -16 -3 6 -15 10 -26 10 -14 0 -18 4 -12 13 14 22 12 37 -5 37 -12 1 -10 4
7 14 25 14 51 64 51 98 0 47 31 68 68 45z m272 -7 c0 -5 -7 -10 -15 -10 -8 0
-15 -6 -15 -14 0 -11 -5 -12 -25 -3 -28 14 -34 31 -7 23 9 -3 24 -1 32 4 19
13 30 13 30 0z m781 -31 c24 -17 56 -43 71 -56 14 -14 31 -22 36 -19 10 6 22
-15 22 -41 0 -11 -6 -14 -22 -8 -13 3 -40 7 -61 8 -31 2 -47 11 -90 54 -39 39
-61 52 -87 55 -50 4 -39 22 17 29 27 3 53 7 59 7 6 1 31 -12 55 -29z m1106 25
c-3 -4 4 -15 16 -26 22 -19 22 -19 -10 -3 -35 17 -44 35 -16 35 9 0 14 -3 10
-6z m2877 -19 c4 -11 11 -13 30 -6 26 10 36 6 36 -16 0 -9 -5 -11 -12 -7 -7 4
-26 8 -42 8 -21 1 -32 7 -34 19 -4 21 14 23 22 2z m-1581 -107 c-10 -244 -15
-264 -135 -535 -27 -62 -51 -128 -54 -145 -2 -18 -13 -75 -24 -127 -11 -52
-20 -105 -20 -118 0 -13 -4 -23 -10 -23 -6 0 -10 68 -10 184 l0 184 -27 10
c-16 6 -37 17 -47 25 -18 13 -17 14 12 9 25 -3 30 -1 29 14 -1 13 6 20 20 22
24 3 41 41 28 61 -4 8 2 8 19 2 27 -11 67 -11 60 0 -2 4 3 12 11 19 11 9 13
23 9 51 -4 24 -2 44 5 53 10 11 10 24 0 54 -9 30 -9 44 1 62 9 18 9 24 0 30
-8 5 -9 13 -4 21 5 8 9 31 9 51 0 28 13 55 60 122 33 47 63 86 66 86 4 0 4
-51 2 -112z m-53 98 c0 -2 -7 -9 -15 -16 -13 -11 -14 -10 -9 4 5 14 24 23 24
12z m1790 -13 c0 -14 -2 -15 -9 -4 -6 9 -11 10 -15 2 -9 -13 -46 -15 -46 -2 0
10 21 18 53 20 10 1 17 -6 17 -16z m-4894 -42 c-1 -24 -4 -27 -18 -20 -22 12
-22 14 -2 33 21 21 21 21 20 -13z m2645 -4 c0 -12 3 -16 6 -9 4 9 14 3 34 -20
19 -22 27 -26 22 -13 -3 11 -12 24 -20 28 -7 4 -13 15 -13 23 0 17 45 10 70
-11 8 -7 21 -10 28 -8 6 3 12 -2 12 -10 0 -8 11 -22 24 -31 29 -18 42 -54 27
-69 -8 -8 -11 -8 -11 1 0 6 -7 9 -15 6 -8 -4 -22 -1 -30 6 -12 10 -15 9 -15
-4 0 -9 3 -15 8 -15 21 4 42 -2 42 -12 0 -7 -10 -9 -25 -5 -16 4 -25 2 -25 -6
0 -7 -24 14 -54 45 -30 31 -62 57 -70 57 -12 0 -15 10 -14 40 1 40 17 46 19 7z
m-1627 -67 c26 -29 35 -47 31 -58 -4 -10 -16 -55 -27 -102 -11 -47 -29 -116
-40 -155 -10 -38 -23 -86 -28 -105 -5 -19 -19 -64 -30 -100 -11 -35 -25 -94
-32 -130 -6 -36 -19 -74 -28 -85 -9 -11 -31 -44 -49 -72 -18 -29 -51 -67 -73
-85 -38 -30 -40 -30 -33 -8 6 19 4 22 -9 17 -12 -5 -16 0 -16 23 0 34 -7 38
-26 13 -11 -15 -13 -16 -14 -3 0 9 5 21 12 28 9 9 9 12 0 12 -6 0 -9 7 -6 15
7 18 -14 47 -27 39 -5 -3 -9 0 -9 6 0 7 7 10 15 7 8 -4 17 -2 20 3 4 6 14 10
23 9 11 0 12 -3 5 -6 -7 -2 -13 -14 -13 -25 0 -19 2 -20 18 -6 9 9 23 13 30
11 6 -3 12 0 12 5 0 6 -6 13 -12 15 -8 3 -6 6 4 6 11 1 15 6 12 16 -4 8 -1 15
6 15 7 0 9 8 5 19 -4 14 0 23 15 31 30 16 37 5 14 -21 l-19 -21 32 18 c19 11
29 23 25 33 -4 11 1 13 21 7 26 -6 53 14 29 22 -17 5 -15 32 2 32 13 0 16 13
47 180 6 30 16 75 24 100 8 25 22 83 31 128 14 67 15 87 6 100 -7 10 -15 25
-19 35 -3 11 -12 16 -23 12 -11 -3 -20 1 -24 10 -4 10 1 15 15 15 l21 0 -20
34 c-11 19 -18 37 -15 40 11 10 80 -33 117 -74z m-610 47 c4 4 4 0 1 -9 -6
-15 -8 -15 -25 0 -11 8 -16 20 -13 25 3 6 11 3 18 -6 7 -9 15 -14 19 -10z
m1116 13 c0 -5 -2 -10 -4 -10 -3 0 -8 5 -11 10 -3 6 -1 10 4 10 6 0 11 -4 11
-10z m-100 -20 c0 -5 -4 -10 -10 -10 -5 0 -10 5 -10 10 0 6 5 10 10 10 6 0 10
-4 10 -10z m50 0 c0 -5 -4 -10 -10 -10 -5 0 -10 5 -10 10 0 6 5 10 10 10 6 0
10 -4 10 -10z m-1370 -76 c13 -32 13 -44 0 -44 -5 0 -10 9 -10 19 0 11 -4 23
-10 26 -13 8 -13 25 0 25 6 0 15 -12 20 -26z m59 -18 c13 -15 7 -36 -10 -36
-5 0 -9 6 -9 14 0 7 -7 19 -15 26 -8 7 -15 17 -15 22 0 11 32 -6 49 -26z
m-439 -11 c0 -5 -5 -3 -10 5 -5 8 -10 20 -10 25 0 6 5 3 10 -5 5 -8 10 -19 10
-25z m520 25 c0 -5 -2 -10 -4 -10 -3 0 -8 5 -11 10 -3 6 -1 10 4 10 6 0 11 -4
11 -10z m350 -33 c0 -5 -4 -5 -10 -2 -5 3 -10 14 -10 23 0 15 2 15 10 2 5 -8
10 -19 10 -23z m-585 -25 c-3 -3 -11 0 -18 7 -9 10 -8 11 6 5 10 -3 15 -9 12
-12z m605 4 c0 -3 -4 -8 -10 -11 -5 -3 -10 -1 -10 4 0 6 5 11 10 11 6 0 10 -2
10 -4z m2363 -11 c-3 -9 -8 -14 -10 -11 -3 3 -2 9 2 15 9 16 15 13 8 -4z
m1645 -5 c33 -20 42 -40 19 -40 -7 0 -20 9 -30 20 -14 17 -24 19 -60 14 -23
-4 -52 -14 -65 -22 -21 -14 -23 -22 -20 -69 3 -52 -4 -68 -16 -37 -17 44 5
110 46 138 31 22 86 20 126 -4z m-4468 -8 c0 -13 -12 -22 -22 -16 -10 6 -1 24
13 24 5 0 9 -4 9 -8z m482 -6 c7 4 8 2 4 -4 -4 -7 -2 -12 5 -12 7 0 9 -3 6 -6
-8 -9 -37 15 -36 30 0 7 2 6 6 -2 2 -6 10 -9 15 -6z m-612 -27 c0 -6 -4 -7
-10 -4 -5 3 -10 11 -10 16 0 6 5 7 10 4 6 -3 10 -11 10 -16z m2910 -3 c0 -2
-8 -10 -17 -17 -16 -13 -17 -12 -4 4 13 16 21 21 21 13z m-1645 -16 c-3 -5
-11 -10 -16 -10 -6 0 -7 5 -4 10 3 6 11 10 16 10 6 0 7 -4 4 -10z m3215 -5 c0
-8 -4 -15 -10 -15 -5 0 -10 7 -10 15 0 8 5 15 10 15 6 0 10 -7 10 -15z m-5230
-2 c0 -5 -5 -15 -10 -23 -8 -12 -10 -11 -10 8 0 12 5 22 10 22 6 0 10 -3 10
-7z m5378 1 c12 -4 22 -11 22 -16 0 -5 -6 -6 -12 -3 -7 4 -4 -1 6 -9 14 -11
17 -19 9 -27 -16 -16 -77 3 -81 25 -3 11 0 16 7 12 6 -4 11 0 11 8 0 18 4 19
38 10z m-108 -20 c0 -8 -4 -12 -10 -9 -5 3 -10 10 -10 16 0 5 5 9 10 9 6 0 10
-7 10 -16z m-3215 -22 c0 -18 -20 -15 -23 4 -3 10 1 15 10 12 7 -3 13 -10 13
-16z m16 -34 c-26 -27 -28 -16 -3 17 9 13 18 19 20 14 2 -4 -6 -18 -17 -31z
m-113 -6 c-12 -31 -28 -38 -35 -14 -4 11 35 57 43 50 2 -3 -2 -19 -8 -36z m48
1 c-10 -10 -19 5 -10 18 6 11 8 11 12 0 2 -7 1 -15 -2 -18z m3434 17 c0 -5 -2
-10 -4 -10 -3 0 -8 5 -11 10 -3 6 -1 10 4 10 6 0 11 -4 11 -10z m65 -18 c-3
-3 -11 0 -18 7 -9 10 -8 11 6 5 10 -3 15 -9 12 -12z m42 -8 c-3 -3 -12 -4 -19
-1 -8 3 -5 6 6 6 11 1 17 -2 13 -5z m-3544 -19 c-3 -9 -8 -14 -10 -11 -3 3 -2
9 2 15 9 16 15 13 8 -4z m27 -15 c-8 -5 -17 -7 -19 -4 -3 3 1 9 9 14 8 5 17 7
19 4 3 -3 -1 -9 -9 -14z m-75 -11 c6 -4 20 -7 30 -7 32 2 91 -31 104 -58 6
-14 11 -37 11 -52 l0 -27 -20 32 c-13 22 -25 31 -35 27 -10 -4 -15 0 -15 11 0
15 -7 16 -47 10 -69 -10 -95 -29 -91 -68 3 -36 60 -81 116 -92 43 -8 41 -25
-4 -25 -45 0 -101 26 -109 51 -8 26 -20 24 -63 -8 -27 -21 -33 -23 -22 -8 8
11 21 25 29 31 11 9 11 15 2 30 -12 18 -12 17 -7 -4 3 -18 2 -21 -9 -12 -9 8
-14 5 -18 -10 -5 -21 -33 -37 -45 -26 -3 4 0 11 8 16 13 8 13 10 -1 10 -9 0
-22 -7 -29 -15 -7 -8 -16 -15 -21 -15 -19 0 -7 18 28 43 21 15 32 27 25 27 -6
0 -12 6 -12 14 0 10 10 14 35 12 39 -3 53 8 50 40 -1 15 3 20 15 17 25 -7 69
40 58 61 -7 12 -5 14 9 9 10 -3 23 -10 28 -14z m185 11 c0 -5 -2 -10 -4 -10
-3 0 -8 5 -11 10 -3 6 -1 10 4 10 6 0 11 -4 11 -10z m-251 -38 c-27 -19 -37
-7 -14 18 14 15 21 17 26 8 5 -7 0 -18 -12 -26z m3428 22 c-3 -3 -12 -4 -19
-1 -8 3 -5 6 6 6 11 1 17 -2 13 -5z m-3517 -34 c-18 -11 -22 -7 -14 14 5 13
10 14 18 6 8 -8 7 -13 -4 -20z m50 21 c0 -5 -7 -11 -15 -15 -9 -3 -15 0 -15 9
0 8 7 15 15 15 8 0 15 -4 15 -9z m1874 -54 c-9 -17 -22 -27 -31 -25 -26 5 -25
23 3 53 20 22 28 25 34 15 5 -8 2 -26 -6 -43z m-2495 -3 c39 -8 40 -27 6 -97
-33 -72 -76 -111 -109 -103 -28 7 -61 49 -53 68 2 7 5 18 6 23 2 6 8 17 16 25
7 8 15 24 19 35 6 19 50 52 72 54 6 1 26 -2 43 -5z m571 -14 c0 -5 -4 -10 -10
-10 -5 0 -10 5 -10 10 0 6 5 10 10 10 6 0 10 -4 10 -10z m2230 -20 c0 -5 -5
-10 -11 -10 -5 0 -7 5 -4 10 3 6 8 10 11 10 2 0 4 -4 4 -10z m-3470 -35 c40
-20 45 -27 46 -57 1 -19 5 -52 9 -74 25 -127 40 -363 23 -379 -3 -4 -12 -8
-20 -9 -7 -1 -24 -8 -37 -15 -24 -13 -114 -11 -128 3 -3 3 4 17 17 31 19 21
21 25 7 25 -9 0 -17 7 -17 16 0 8 -13 20 -29 25 -16 6 -32 17 -35 26 -5 12 -9
13 -20 4 -21 -18 -31 5 -16 35 11 19 11 26 0 39 -7 8 -10 18 -7 22 4 3 2 14
-4 24 -8 15 -5 20 16 25 28 7 29 8 14 35 -5 11 -14 17 -20 14 -5 -4 -7 -10 -4
-15 8 -13 -30 -31 -49 -24 -9 3 -16 9 -16 13 0 3 -3 17 -7 31 -6 22 -5 24 10
11 15 -12 17 -11 17 3 0 9 8 16 17 16 14 0 14 3 5 12 -9 9 -15 10 -20 2 -9
-14 -43 -14 -60 -1 -11 9 -11 13 4 24 17 12 22 73 9 113 -6 18 43 47 90 53 61
9 160 -5 205 -28z m1365 -5 c3 -5 1 -10 -4 -10 -6 0 -11 5 -11 10 0 6 2 10 4
10 3 0 8 -4 11 -10z m2115 0 c0 -5 -5 -10 -11 -10 -5 0 -7 5 -4 10 3 6 8 10
11 10 2 0 4 -4 4 -10z m-3800 -20 c0 -5 -7 -10 -16 -10 -8 0 -12 5 -9 10 3 6
10 10 16 10 5 0 9 -4 9 -10z m20 -30 c0 -5 -5 -10 -11 -10 -5 0 -7 5 -4 10 3
6 8 10 11 10 2 0 4 -4 4 -10z m3960 -10 c0 -5 -4 -10 -10 -10 -5 0 -10 5 -10
10 0 6 5 10 10 10 6 0 10 -4 10 -10z m-4000 -10 c0 -12 -28 -25 -36 -17 -9 9
6 27 22 27 8 0 14 -5 14 -10z m1544 -39 c3 -4 -9 -21 -27 -37 l-32 -29 29 33
c34 37 31 40 -17 12 -19 -12 -37 -30 -41 -42 -3 -12 -8 -20 -11 -17 -7 7 14
71 28 84 7 7 8 6 3 -2 -4 -7 -3 -13 2 -13 15 0 33 26 24 35 -4 4 3 3 15 -4 12
-6 24 -15 27 -20z m-1664 -11 c0 -5 -7 -10 -16 -10 -8 0 -12 5 -9 10 3 6 10
10 16 10 5 0 9 -4 9 -10z m3867 -72 c-3 -8 -6 -5 -6 6 -1 11 2 17 5 13 3 -3 4
-12 1 -19z m-566 -87 c16 -16 29 -35 29 -43 -1 -9 -4 -7 -10 4 -22 37 -107 45
-151 15 -46 -33 -55 -11 -13 28 40 37 106 35 145 -4z m-3071 -6 c0 -8 -4 -15
-10 -15 -5 0 -7 7 -4 15 4 8 8 15 10 15 2 0 4 -7 4 -15z m980 -35 c-6 -11 -8
-24 -5 -29 3 -5 -1 -11 -7 -14 -10 -3 -10 -7 0 -19 9 -11 10 -18 2 -23 -5 -3
-10 1 -10 10 0 10 -6 15 -13 12 -19 -7 -9 54 11 71 24 18 34 15 22 -8z m2015
10 c3 -5 -1 -10 -9 -10 -9 0 -16 5 -16 10 0 6 4 10 9 10 6 0 13 -4 16 -10z
m-35 -28 c0 -5 -7 -17 -15 -28 -14 -18 -14 -18 -13 9 1 15 8 27 15 27 7 0 13
-4 13 -8z m-3380 -16 c0 -9 8 -13 23 -9 22 4 22 4 2 -12 -16 -13 -17 -17 -6
-24 7 -5 11 -14 7 -20 -11 -17 -41 20 -42 52 -1 15 3 27 7 27 5 0 9 -6 9 -14z
m3510 -6 c0 -5 -4 -10 -10 -10 -5 0 -10 5 -10 10 0 6 5 10 10 10 6 0 10 -4 10
-10z m-2086 -21 c-3 -5 -10 -7 -15 -3 -5 3 -7 10 -3 15 3 5 10 7 15 3 5 -3 7
-10 3 -15z m3051 -22 c0 -21 4 -37 9 -37 5 0 3 -7 -4 -15 -10 -12 -9 -20 4
-40 9 -14 21 -25 26 -25 17 0 11 17 -12 33 -19 13 -20 18 -9 26 8 5 21 7 28 4
11 -4 12 -8 3 -13 -9 -6 -9 -9 0 -15 7 -4 13 1 17 14 3 11 9 18 14 15 5 -3 7
-10 4 -15 -4 -5 1 -9 9 -9 11 0 15 -8 12 -30 -2 -20 1 -30 10 -30 8 0 14 -7
14 -15 0 -20 30 -32 40 -15 4 7 13 9 19 6 6 -4 8 -12 5 -18 -4 -6 2 -5 15 2
19 10 23 8 34 -18 6 -16 18 -27 24 -25 7 3 17 -7 23 -21 6 -17 14 -24 24 -20
10 4 20 -3 27 -20 7 -14 16 -26 22 -26 20 0 116 -107 113 -126 -2 -10 -1 -13
1 -6 5 15 20 16 29 1 3 -6 0 -15 -7 -20 -12 -8 -11 -11 4 -20 9 -5 17 -18 17
-27 0 -10 3 -13 8 -7 14 19 32 15 32 -8 0 -12 9 -28 20 -35 11 -7 20 -17 20
-23 0 -8 -5 -7 -15 1 -28 23 -28 1 0 -35 15 -20 24 -39 20 -43 -3 -4 -11 1
-16 11 -6 9 -14 15 -20 12 -5 -4 -9 1 -9 9 0 9 -8 16 -19 16 -10 0 -25 10 -34
23 -8 12 -24 31 -34 42 -13 13 -19 33 -19 57 1 25 -2 34 -11 31 -17 -7 -17
-30 0 -36 6 -2 9 -7 6 -11 -3 -3 -32 19 -65 49 -32 30 -55 55 -50 55 5 0 15
-8 22 -17 13 -17 14 -17 8 2 -4 16 -1 14 18 -7 13 -16 30 -28 37 -28 7 0 -9
23 -37 51 -37 38 -48 55 -44 71 4 16 2 19 -9 12 -28 -17 -46 -14 -45 9 1 26
-35 36 -55 14 -11 -12 -17 -11 -41 2 -15 9 -28 22 -28 29 0 6 -7 12 -16 12 -9
0 -34 14 -55 31 -21 17 -39 28 -39 24 0 -4 -7 -2 -15 5 -14 12 -14 15 1 31 19
21 13 24 -17 8 -19 -9 -19 -9 -10 10 14 25 14 31 0 31 -5 0 -8 -4 -5 -9 8 -12
-22 -36 -32 -26 -4 4 -1 10 6 12 6 3 12 18 12 34 0 16 -5 29 -12 29 -10 0 -9
3 1 9 19 12 3 34 -20 28 -21 -6 -34 7 -24 23 4 7 13 6 27 -1 18 -10 20 -9 15
5 -4 9 -2 16 3 16 5 0 7 7 3 16 -4 12 -2 15 8 12 9 -3 14 -19 14 -41z m-942 6
c-10 -30 -42 -60 -83 -78 -37 -17 -40 -17 -76 1 -21 11 -40 25 -42 32 -3 9 6
8 31 -4 34 -16 36 -16 86 11 28 16 56 34 62 42 16 19 29 16 22 -4z m-2263 -6
c0 -17 -34 -57 -48 -57 -6 0 -13 -8 -16 -17 -2 -10 -4 -4 -3 12 1 17 8 31 15
31 6 1 17 2 23 3 5 0 7 6 4 11 -7 12 2 30 16 30 5 0 9 -6 9 -13z m215 -27 c-3
-5 -12 -10 -18 -10 -7 0 -6 4 3 10 19 12 23 12 15 0z m3030 0 c3 -5 1 -10 -4
-10 -6 0 -11 5 -11 10 0 6 2 10 4 10 3 0 8 -4 11 -10z m-4492 -69 c16 -29 26
-56 23 -59 -3 -3 -15 16 -27 42 -11 26 -27 50 -35 53 -17 6 -19 26 -1 21 6 -3
25 -28 40 -57z m17 49 c0 -5 -2 -10 -4 -10 -3 0 -8 5 -11 10 -3 6 -1 10 4 10
6 0 11 -4 11 -10z m4360 0 c0 -5 -2 -10 -4 -10 -3 0 -8 5 -11 10 -3 6 -1 10 4
10 6 0 11 -4 11 -10z m-3866 -25 c8 -33 -4 -57 -15 -29 -11 27 -11 54 0 54 5
0 12 -11 15 -25z m4086 9 c0 -8 -5 -12 -10 -9 -6 4 -8 11 -5 16 9 14 15 11 15
-7z m-3133 0 c-3 -3 -12 -4 -19 -1 -8 3 -5 6 6 6 11 1 17 -2 13 -5z m2901 -22
c2 -7 -2 -10 -12 -6 -9 3 -16 11 -16 16 0 13 23 5 28 -10z m-2005 -6 c39 -16
59 -39 75 -88 10 -28 10 -43 2 -58 -15 -28 -23 -25 -17 8 10 49 -3 80 -40 97
-25 12 -38 14 -46 6 -6 -6 -7 -11 -2 -11 4 0 0 -9 -11 -21 -15 -17 -16 -22 -4
-29 12 -7 12 -12 2 -22 -9 -9 -12 -9 -12 0 0 23 -15 12 -43 -32 -15 -24 -34
-50 -43 -57 -13 -11 -14 -9 -2 17 7 16 15 31 18 34 9 8 40 59 40 65 0 16 -22
1 -35 -26 -16 -29 -50 -69 -60 -69 -3 0 -5 10 -6 23 0 21 -1 21 -8 2 -5 -12
-4 -26 3 -35 10 -13 9 -13 -7 0 -17 12 -20 12 -28 -3 -14 -24 -31 -21 -27 6 2
12 9 21 16 19 9 -2 11 4 7 17 -9 31 35 74 76 74 19 0 28 2 22 5 -7 2 -13 8
-13 14 0 20 42 63 68 69 41 10 40 10 75 -5z m-2393 -27 c0 -17 7 -59 16 -93
17 -66 24 -136 13 -136 -3 0 -13 24 -22 53 -17 55 -28 207 -15 207 5 0 8 -14
8 -31z m1140 21 c0 -5 -4 -10 -10 -10 -5 0 -10 5 -10 10 0 6 5 10 10 10 6 0
10 -4 10 -10z m3303 4 c-7 -3 -9 -13 -6 -22 6 -14 5 -15 -9 -2 -16 15 -7 31
17 29 6 0 5 -3 -2 -5z m-1933 -64 c0 -5 -4 -10 -10 -10 -5 0 -10 5 -10 10 0 6
5 10 10 10 6 0 10 -4 10 -10z m-3470 -46 c-13 -27 -19 -33 -20 -19 0 20 28 70
36 62 2 -2 -5 -21 -16 -43z m207 -55 c-10 -75 -70 -117 -140 -98 l-42 11 69
23 c71 23 106 52 106 86 0 10 3 19 6 19 4 0 4 -18 1 -41z m5291 4 c10 -10 22
-27 26 -38 6 -17 3 -16 -21 6 -42 39 -55 40 -118 8 -32 -16 -59 -29 -61 -29
-12 0 0 22 26 50 29 31 34 32 80 27 28 -3 58 -14 68 -24z m-5368 -34 c0 -5 -7
-9 -15 -9 -9 0 -15 9 -15 21 0 18 2 19 15 9 8 -7 15 -16 15 -21z m-45 12 c3
-5 1 -12 -5 -16 -5 -3 -10 1 -10 9 0 18 6 21 15 7z m1705 -31 c0 -5 -4 -10
-10 -10 -5 0 -10 5 -10 10 0 6 5 10 10 10 6 0 10 -4 10 -10z m1300 -40 c0 -5
-2 -10 -4 -10 -3 0 -8 5 -11 10 -3 6 -1 10 4 10 6 0 11 -4 11 -10z m2650 -11
c11 -20 11 -20 -17 -3 -15 10 -30 19 -32 21 -2 2 5 3 17 3 12 0 26 -9 32 -21z
m-215 -55 c-21 -33 -105 -70 -105 -46 0 4 23 22 51 40 28 19 54 43 57 55 7 22
7 22 10 -1 2 -13 -4 -35 -13 -48z m-4502 13 c-7 -11 -23 12 -23 33 1 12 4 11
15 -4 8 -10 12 -23 8 -29z m12 -27 c3 -5 1 -10 -4 -10 -6 0 -11 5 -11 10 0 6
2 10 4 10 3 0 8 -4 11 -10z m4985 -30 c0 -5 -2 -10 -4 -10 -3 0 -8 5 -11 10
-3 6 -1 10 4 10 6 0 11 -4 11 -10z m-4961 -32 c10 -30 9 -31 -4 -14 -8 11 -15
26 -15 33 0 22 8 14 19 -19z m31 -73 c0 -5 -5 -3 -10 5 -5 8 -10 20 -10 25 0
6 5 3 10 -5 5 -8 10 -19 10 -25z m4995 -84 c2 -24 8 -47 13 -50 5 -3 7 -13 3
-22 -5 -12 -13 -8 -40 20 -19 20 -31 33 -26 29 4 -5 15 2 23 13 13 19 13 23
-2 31 -22 13 -20 25 5 24 17 -1 22 -8 24 -45z m95 35 c0 -3 -4 -8 -10 -11 -5
-3 -10 -1 -10 4 0 6 5 11 10 11 6 0 10 -2 10 -4z m636 -87 c50 -47 48 -123 -6
-171 -24 -22 -39 -28 -73 -26 l-42 1 40 4 c46 5 85 36 85 69 0 34 -55 110 -90
124 -45 19 -37 33 16 27 28 -3 54 -13 70 -28z m-606 -81 c0 -19 -2 -20 -10 -8
-13 19 -13 30 0 30 6 0 10 -10 10 -22z m680 -38 c0 -5 -2 -10 -4 -10 -3 0 -8
5 -11 10 -3 6 -1 10 4 10 6 0 11 -4 11 -10z m-728 -16 c-5 -9 -7 -24 -5 -34 2
-9 -2 -22 -10 -29 -13 -10 -14 -7 -7 22 8 36 18 57 26 57 3 0 1 -7 -4 -16z
m62 -83 c4 -5 3 -17 0 -26 -5 -13 -8 -14 -15 -3 -5 7 -9 19 -9 26 0 14 16 16
24 3z m-54 -56 c0 -8 -4 -15 -10 -15 -5 0 -10 7 -10 15 0 8 5 15 10 15 6 0 10
-7 10 -15z m-5190 -52 c14 4 31 -5 55 -28 30 -27 35 -39 35 -77 0 -57 -11 -68
-24 -26 -6 18 -26 42 -46 56 -29 19 -44 23 -87 19 -29 -2 -53 -3 -53 0 0 2 17
19 37 38 28 25 40 31 50 23 7 -6 22 -8 33 -5z m5218 -62 c3 -8 -1 -12 -9 -9
-7 2 -15 10 -17 17 -3 8 1 12 9 9 7 -2 15 -10 17 -17z m-2805 -72 c31 -16 67
-50 67 -63 -1 -6 -9 -1 -19 11 -22 26 -81 39 -110 23 -12 -6 -19 -14 -17 -18
3 -5 1 -14 -5 -22 -7 -12 -9 -11 -9 4 0 17 -4 16 -30 -9 l-30 -29 0 25 c1 64
91 110 153 78z m2827 -62 c-5 -12 -9 -16 -9 -8 -1 7 -7 11 -16 8 -8 -4 -17 -2
-20 3 -4 6 1 10 10 10 10 0 18 12 22 33 l7 32 7 -28 c4 -16 4 -38 -1 -50z
m-2114 21 c13 -13 25 -36 29 -53 5 -27 4 -28 -6 -8 -6 12 -25 28 -42 36 -27
14 -34 13 -66 -1 -20 -10 -39 -21 -43 -27 -4 -6 -8 -2 -8 8 0 9 -7 17 -16 17
-25 0 -11 23 27 43 43 22 95 16 125 -15z m2124 -58 c0 -5 -2 -10 -4 -10 -3 0
-8 5 -11 10 -3 6 -1 10 4 10 6 0 11 -4 11 -10z m-2970 -41 c0 -10 -4 -19 -9
-19 -5 0 -8 11 -7 24 1 28 16 24 16 -5z m2988 2 c3 -8 -1 -12 -9 -9 -7 2 -15
10 -17 17 -3 8 1 12 9 9 7 -2 15 -10 17 -17z m-4336 -20 c10 -28 -8 -44 -52
-45 -14 -1 -31 -5 -37 -9 -9 -6 -13 -2 -13 13 0 16 -6 21 -22 20 -49 -4 -52
-1 -28 25 21 22 31 25 83 23 53 -2 60 -5 69 -27z m2217 -28 c-33 -42 -53 -53
-93 -52 l-41 1 40 9 c23 5 52 20 65 34 29 28 49 33 29 8z m2351 -33 c0 -5 -2
-10 -4 -10 -3 0 -8 5 -11 10 -3 6 -1 10 4 10 6 0 11 -4 11 -10z m-4916 -40
c27 -10 66 -75 66 -110 0 -29 -26 -76 -52 -94 -12 -9 -41 -16 -63 -15 l-40 0
46 14 c72 23 101 71 79 129 -8 21 -16 26 -44 26 -25 0 -35 5 -39 20 -4 14 -14
20 -34 20 -22 0 -25 2 -13 10 19 12 62 13 94 0z m338 -70 c-24 -22 -42 -30
-70 -30 -62 0 -70 16 -11 23 28 4 61 13 73 21 37 26 42 17 8 -14z m3098 -10
c0 -5 -5 -10 -11 -10 -5 0 -7 5 -4 10 3 6 8 10 11 10 2 0 4 -4 4 -10z m1460
-10 c0 -5 -4 -10 -10 -10 -5 0 -10 5 -10 10 0 6 5 10 10 10 6 0 10 -4 10 -10z
m-1204 -54 c19 -19 34 -39 34 -46 0 -6 -10 0 -22 14 -21 22 -51 31 -95 27 -7
-1 -13 -11 -14 -23 0 -22 -1 -22 -9 -3 -7 19 -8 19 -15 2 -4 -10 -14 -16 -21
-13 -17 7 -18 -6 -2 -22 16 -16 -3 -15 -25 2 -19 15 -15 40 13 67 22 22 38 27
84 28 31 1 45 -6 72 -33z m1379 18 c43 -28 59 -119 29 -162 -22 -32 -37 -27
-19 8 8 16 15 43 15 59 0 32 -36 84 -52 75 -4 -3 -8 -1 -8 4 0 14 -32 24 -43
13 -11 -11 -49 -2 -41 10 9 15 93 10 119 -7z m-65 -39 c0 -8 -9 -15 -20 -15
-20 0 -26 11 -13 23 12 13 33 7 33 -8z m-1280 -73 c0 -16 -7 -37 -15 -48 -16
-21 -16 -24 0 49 7 35 15 35 15 -1z m-3373 -569 c13 -15 23 -36 23 -46 0 -14
-8 -10 -35 18 -43 42 -71 44 -131 9 -41 -24 -44 -25 -44 -7 0 70 138 88 187
26z m-1749 -110 c41 -35 51 -85 27 -136 -9 -19 -24 -38 -33 -42 -14 -5 -14 -4
1 13 28 31 21 76 -20 126 -21 25 -51 49 -68 55 -29 9 -28 9 15 10 36 1 53 -5
78 -26z m1733 -54 c-13 -10 -30 -19 -39 -19 -8 0 0 10 19 23 40 28 55 24 20
-4z m1557 -422 c15 -12 42 -61 42 -74 -1 -4 -8 4 -16 20 -15 27 -56 38 -69 17
-8 -13 -56 -13 -90 0 -31 12 -25 26 19 46 33 15 91 10 114 -9z m1168 -18 c24
-26 23 -43 -1 -20 -15 14 -112 32 -131 24 -12 -4 -15 -3 -10 5 9 15 65 29 93
24 11 -2 34 -17 49 -33z m1721 -121 c-3 -8 -6 -5 -6 6 -1 11 2 17 5 13 3 -3 4
-12 1 -19z m-4289 -65 c-1 -5 3 -18 10 -30 8 -15 9 -23 2 -23 -5 0 -13 0 -17
0 -4 0 -8 13 -9 30 -1 16 2 30 7 30 5 0 8 -3 7 -7z m2993 -30 c16 -10 29 -21
29 -25 0 -4 -13 1 -29 10 -31 18 -35 17 -134 -23 -32 -13 -6 26 27 41 42 18
72 17 107 -3z m-2981 -52 c0 -5 3 -18 7 -28 6 -17 6 -17 -10 -1 -19 18 -22 38
-7 38 6 0 10 -4 10 -9z m3024 -113 c-11 -28 -57 -51 -100 -50 -81 1 -89 26 -9
29 31 0 64 8 77 17 27 19 39 20 32 4z m-2964 -69 c0 -11 -4 -17 -10 -14 -5 3
-10 15 -10 26 0 11 5 17 10 14 6 -3 10 -15 10 -26z m-306 -55 c14 -15 26 -32
26 -38 0 -6 -5 -3 -10 6 -6 9 -25 21 -44 28 -27 9 -41 7 -78 -9 -24 -10 -52
-31 -62 -46 -16 -25 -20 -26 -28 -11 -6 11 -4 21 6 32 9 8 16 19 16 24 0 18
55 39 101 40 37 0 52 -5 73 -26z m4933 -116 c28 -32 43 -63 43 -90 -1 -17 -4
-14 -14 15 -23 63 -33 70 -101 64 -33 -2 -68 -7 -77 -12 -29 -12 -21 13 10 29
43 24 114 20 139 -6z m-3139 -124 c2 -14 -5 -24 -23 -32 -60 -28 -95 -3 -50
35 32 28 69 27 73 -3z m-1353 -54 c3 -5 1 -10 -4 -10 -6 0 -11 5 -11 10 0 6 2
10 4 10 3 0 8 -4 11 -10z m15 -60 c0 -5 -4 -10 -9 -10 -6 0 -13 5 -16 10 -3 6
1 10 9 10 9 0 16 -4 16 -10z m1428 -52 c-7 -19 -79 -40 -115 -33 -43 8 -43 25
0 18 19 -3 47 2 67 10 44 19 53 20 48 5z m-2558 -183 c16 -8 34 -24 40 -34 23
-45 1 -139 -38 -160 -32 -17 -38 -13 -14 9 22 21 27 46 16 86 -6 23 -95 74
-127 74 -23 0 -12 18 17 30 33 13 74 11 106 -5z m5330 -465 c14 -4 18 -9 10
-9 -21 -2 -53 -49 -46 -67 3 -7 1 -14 -3 -14 -5 0 -11 6 -14 13 -2 6 -7 9 -11
6 -4 -4 0 -14 9 -22 19 -19 19 -27 0 -27 -7 0 -18 7 -23 16 -11 19 -32 11 -32
-12 0 -8 -4 -13 -8 -10 -14 9 -4 78 15 99 31 33 59 41 103 27z m10 -90 c0 -5
-2 -10 -4 -10 -3 0 -8 5 -11 10 -3 6 -1 10 4 10 6 0 11 -4 11 -10z m-1166 -31
c49 -23 40 -39 -23 -39 -63 0 -77 -6 -59 -27 6 -7 8 -17 4 -21 -4 -4 -14 2
-22 12 -8 11 -14 14 -14 8 0 -7 -11 -12 -25 -12 -27 0 -31 10 -15 40 23 43
101 63 154 39z m1151 -9 c3 -5 1 -10 -4 -10 -6 0 -11 5 -11 10 0 6 2 10 4 10
3 0 8 -4 11 -10z m-11 -46 c9 -24 7 -44 -4 -44 -5 0 -10 6 -10 14 0 8 -5 16
-12 18 -6 2 -8 10 -4 16 10 17 23 15 30 -4z m66 -16 c0 -5 -4 -8 -10 -8 -5 0
-10 10 -10 23 0 18 2 19 10 7 5 -8 10 -18 10 -22z m-35 12 c3 -5 1 -10 -4 -10
-6 0 -11 5 -11 10 0 6 2 10 4 10 3 0 8 -4 11 -10z m-1245 -56 c0 -8 -5 -12
-10 -9 -6 4 -8 11 -5 16 9 14 15 11 15 -7z m1365 -344 c3 -5 -1 -10 -9 -10 -9
0 -16 5 -16 10 0 6 4 10 9 10 6 0 13 -4 16 -10z m-5739 -44 c19 -19 34 -41 34
-50 0 -23 -8 -20 -28 12 -19 30 -25 33 -99 40 -80 7 -68 30 16 31 36 1 48 -4
77 -33z m5756 -31 c2 -20 8 -29 17 -27 12 3 12 1 1 -13 -11 -13 -15 -14 -20
-3 -12 21 -20 92 -10 82 4 -5 10 -22 12 -39z m-4043 -1092 c15 -16 31 -39 34
-52 l6 -23 -22 19 c-26 23 -116 31 -161 13 -41 -15 -42 -7 -3 34 29 30 41 36
76 36 31 0 48 -6 70 -27z"/>
<path d="M4275 10759 c-4 -6 -5 -12 -2 -15 2 -3 7 2 10 11 7 17 1 20 -8 4z"/>
<path d="M4719 10584 c-21 -12 -19 -19 5 -15 5 1 17 -6 27 -15 11 -9 19 -12
19 -6 0 6 3 17 6 25 7 20 -28 27 -57 11z"/>
<path d="M4270 10150 c0 -5 5 -10 11 -10 5 0 7 5 4 10 -3 6 -8 10 -11 10 -2 0
-4 -4 -4 -10z"/>
<path d="M2162 8659 c-12 -19 -11 -19 8 -9 11 6 20 15 20 20 0 17 -15 11 -28
-11z"/>
<path d="M2047 8647 c-4 -10 2 -13 20 -9 18 3 21 7 11 13 -18 12 -25 11 -31
-4z"/>
<path d="M2252 8638 c6 -18 28 -21 28 -4 0 9 -7 16 -16 16 -9 0 -14 -5 -12
-12z"/>
<path d="M2110 8620 c0 -5 7 -10 16 -10 8 0 12 5 9 10 -3 6 -10 10 -16 10 -5
0 -9 -4 -9 -10z"/>
<path d="M2200 8610 c0 -5 5 -10 10 -10 6 0 10 5 10 10 0 6 -4 10 -10 10 -5 0
-10 -4 -10 -10z"/>
<path d="M2240 8581 c12 -23 39 -45 46 -38 9 9 -19 45 -38 50 -14 4 -16 2 -8
-12z"/>
<path d="M3395 9531 c-6 -10 11 -24 33 -27 10 -2 8 3 -4 17 -20 22 -21 22 -29
10z"/>
<path d="M1616 9365 c4 -8 8 -15 10 -15 2 0 4 7 4 15 0 8 -4 15 -10 15 -5 0
-7 -7 -4 -15z"/>
<path d="M1586 9324 c-5 -14 -4 -15 9 -4 17 14 19 20 6 20 -5 0 -12 -7 -15
-16z"/>
<path d="M4400 9314 c0 -8 5 -12 10 -9 6 4 8 11 5 16 -9 14 -15 11 -15 -7z"/>
<path d="M3751 8744 c0 -11 3 -14 6 -6 3 7 2 16 -1 19 -3 4 -6 -2 -5 -13z"/>
<path d="M5220 8945 c-14 -27 -5 -49 10 -25 9 14 14 50 7 50 -2 0 -10 -11 -17
-25z"/>
<path d="M5196 8884 c-4 -9 -4 -19 -1 -22 2 -3 7 3 11 12 4 9 4 19 1 22 -2 3
-7 -3 -11 -12z"/>
<path d="M5175 8839 c-4 -6 -5 -12 -2 -15 2 -3 7 2 10 11 7 17 1 20 -8 4z"/>
<path d="M1666 8481 c-3 -5 1 -11 9 -15 8 -3 15 -1 15 4 0 13 -18 22 -24 11z"/>
<path d="M4735 8440 c-3 -5 -1 -10 4 -10 6 0 11 5 11 10 0 6 -2 10 -4 10 -3 0
-8 -4 -11 -10z"/>
<path d="M2652 7654 c-7 -8 -8 -14 -3 -14 10 0 25 19 20 25 -2 1 -10 -3 -17
-11z"/>
<path d="M6595 8250 c3 -5 8 -10 11 -10 2 0 4 5 4 10 0 6 -5 10 -11 10 -5 0
-7 -4 -4 -10z"/>
<path d="M1555 7770 c3 -5 8 -10 11 -10 2 0 4 5 4 10 0 6 -5 10 -11 10 -5 0
-7 -4 -4 -10z"/>
<path d="M1625 7720 c-3 -6 1 -7 9 -4 18 7 21 14 7 14 -6 0 -13 -4 -16 -10z"/>
<path d="M1644 7624 c3 -9 6 -19 6 -24 0 -4 11 -3 24 3 14 7 21 17 18 25 -4
11 -6 11 -13 0 -7 -10 -9 -10 -9 0 0 6 -7 12 -16 12 -11 0 -14 -5 -10 -16z"/>
<path d="M1700 7580 c0 -5 4 -10 9 -10 6 0 13 5 16 10 3 6 -1 10 -9 10 -9 0
-16 -4 -16 -10z"/>
<path d="M1720 7545 c0 -8 7 -15 15 -15 8 0 15 7 15 15 0 8 -7 15 -15 15 -8 0
-15 -7 -15 -15z"/>
<path d="M1738 7473 c7 -3 16 -2 19 1 4 3 -2 6 -13 5 -11 0 -14 -3 -6 -6z"/>
<path d="M5727 7404 c21 -19 24 -27 14 -33 -9 -6 -4 -8 13 -8 26 0 26 0 9 20
-35 41 -42 47 -53 47 -6 0 1 -12 17 -26z"/>
<path d="M5835 7400 c-3 -5 -1 -10 4 -10 6 0 11 5 11 10 0 6 -2 10 -4 10 -3 0
-8 -4 -11 -10z"/>
<path d="M5806 7380 c6 -8 14 -27 18 -42 4 -19 11 -26 21 -22 24 10 17 31 -17
55 -18 13 -28 17 -22 9z"/>
<path d="M5980 7256 c0 -12 90 -99 97 -93 4 5 -14 28 -40 53 -44 41 -57 50
-57 40z"/>
<path d="M6096 7082 c-3 -5 4 -23 15 -41 16 -26 21 -29 33 -19 15 14 3 39 -17
35 -7 -1 -11 6 -11 16 2 18 -11 23 -20 9z"/>
</g>
</svg>
